<svg width="17" height="14" viewBox="0 0 17 14" fill="none" xmlns="http://www.w3.org/2000/svg">
<path fill-rule="evenodd" clip-rule="evenodd" d="M0.963147 1.36492C0.963147 1.1348 1.14969 0.948256 1.37981 0.948256H3.15838C6.36316 0.948256 8.99257 3.43961 8.99257 6.55076V9.68095L10.6096 8.1331C10.7758 7.97397 11.0396 7.97973 11.1987 8.14597C11.3578 8.3122 11.3521 8.57596 11.1858 8.73508L8.86402 10.9576C8.7029 11.1118 8.4489 11.1118 8.28778 10.9576L5.96598 8.73508C5.79975 8.57596 5.79398 8.3122 5.95311 8.14597C6.11223 7.97973 6.37599 7.97397 6.54222 8.1331L8.15923 9.68095V6.55076C8.15923 3.93379 5.93762 1.78159 3.15838 1.78159H1.37981C1.14969 1.78159 0.963147 1.59504 0.963147 1.36492ZM5.09333 10.0978C5.12321 10.326 4.96247 10.5352 4.7343 10.5651C3.61024 10.7123 2.69219 10.9233 2.06627 11.1668C1.75132 11.2894 1.53397 11.4112 1.40275 11.5202C1.29582 11.609 1.27941 11.6597 1.27721 11.6699C1.27887 11.6774 1.28735 11.7017 1.32531 11.7448C1.38189 11.809 1.48433 11.8908 1.65023 11.9819C1.98168 12.1638 2.48888 12.3409 3.15128 12.4947C4.46943 12.8007 6.31133 12.9939 8.36036 12.9939C10.4094 12.9939 12.2513 12.8007 13.5694 12.4947C14.2318 12.3409 14.739 12.1638 15.0705 11.9819C15.2364 11.8908 15.3388 11.809 15.3954 11.7448C15.4339 11.7011 15.4421 11.6767 15.4436 11.6695C15.4418 11.6611 15.4308 11.6278 15.3712 11.5683C15.29 11.4873 15.1486 11.3897 14.9308 11.2855C14.4969 11.0782 13.8454 10.885 13.0173 10.7284C12.7911 10.6856 12.6425 10.4676 12.6853 10.2415C12.7281 10.0154 12.946 9.86677 13.1721 9.90954C14.0318 10.0722 14.7631 10.2818 15.2901 10.5337C15.5527 10.6591 15.7863 10.8052 15.9599 10.9786C16.1347 11.153 16.277 11.3854 16.277 11.6694C16.277 11.9194 16.1661 12.1307 16.0206 12.2958C15.8773 12.4583 15.6851 12.5952 15.4715 12.7124C15.0439 12.9471 14.4527 13.1451 13.7579 13.3064C12.3616 13.6306 10.4535 13.8272 8.36036 13.8272C6.26726 13.8272 4.35915 13.6306 2.96284 13.3064C2.26801 13.1451 1.67685 12.9471 1.24927 12.7124C1.03565 12.5952 0.843392 12.4583 0.700163 12.2958C0.554605 12.1307 0.443695 11.9194 0.443695 11.6694C0.443695 11.3295 0.645429 11.0659 0.870363 10.8791C1.09907 10.6891 1.40914 10.5283 1.76412 10.3902C2.47807 10.1124 3.46993 9.89025 4.62607 9.73881C4.85424 9.70893 5.06344 9.86967 5.09333 10.0978ZM15.4439 11.6717L15.4436 11.6695L15.4439 11.6717ZM15.4436 11.6695L15.4439 11.6673L15.4436 11.6695ZM1.27686 11.6673L1.27702 11.669L1.27686 11.6673Z" fill="#1A93DA"/>
</svg>
