<svg width="17" height="14" viewBox="0 0 17 14" fill="none" xmlns="http://www.w3.org/2000/svg">
<path fill-rule="evenodd" clip-rule="evenodd" d="M10.702 9.98121C10.7203 9.75182 10.9211 9.58069 11.1504 9.59899C12.6145 9.71576 13.8895 9.93087 14.8096 10.2165C15.2667 10.3584 15.6606 10.525 15.949 10.7214C16.2218 10.9071 16.5 11.1899 16.5 11.5835C16.5 11.8344 16.3837 12.0428 16.2375 12.2016C16.0933 12.3582 15.9006 12.4892 15.6877 12.6011C15.2611 12.8252 14.6711 13.0145 13.977 13.1687C12.5822 13.4787 10.6755 13.6668 8.58334 13.6668C6.49122 13.6668 4.58447 13.4787 3.18965 13.1687C2.49562 13.0145 1.9056 12.8252 1.47893 12.6011C1.26603 12.4892 1.07339 12.3582 0.929201 12.2016C0.782949 12.0428 0.666672 11.8344 0.666672 11.5835C0.666672 11.2377 0.88333 10.9773 1.11087 10.7992C1.34498 10.616 1.66207 10.4611 2.02533 10.3282C2.75641 10.0607 3.77249 9.84758 4.95621 9.70457C5.18467 9.67697 5.39224 9.8398 5.41985 10.0683C5.44745 10.2967 5.28462 10.5043 5.05616 10.5319C3.90315 10.6712 2.95781 10.8744 2.31165 11.1108C1.98629 11.2298 1.7608 11.3488 1.6245 11.4555C1.53806 11.5231 1.51064 11.5665 1.50247 11.5838C1.50728 11.5934 1.51825 11.6111 1.54222 11.6371C1.59784 11.6975 1.6999 11.7758 1.86652 11.8634C2.1989 12.038 2.70722 12.2079 3.37043 12.3552C4.69007 12.6485 6.53332 12.8335 8.58334 12.8335C10.6334 12.8335 12.4766 12.6485 13.7963 12.3552C14.4595 12.2079 14.9678 12.038 15.3002 11.8634C15.4668 11.7758 15.5688 11.6975 15.6245 11.6371C15.6482 11.6113 15.6592 11.5938 15.6641 11.584C15.6546 11.5639 15.6174 11.5037 15.4801 11.4103C15.2897 11.2807 14.9849 11.1435 14.5625 11.0124C13.7234 10.7519 12.5153 10.5438 11.0842 10.4297C10.8548 10.4114 10.6837 10.2106 10.702 9.98121ZM1.49943 11.5914L1.49924 11.5922L1.49943 11.5914ZM13.2745 0.455382C13.4372 0.292664 13.7011 0.292664 13.8638 0.455382L16.0849 2.67647L16.0863 2.67788C16.1434 2.73501 16.1805 2.8046 16.1975 2.87791C16.2108 2.9351 16.2118 2.99454 16.2007 3.05209C16.1854 3.13088 16.1473 3.20612 16.0863 3.26714L16.0849 3.26854L13.8638 5.48963C13.7011 5.65235 13.4372 5.65235 13.2745 5.48963C13.1118 5.32691 13.1118 5.06309 13.2745 4.90038L14.7857 3.38917H13.3525C10.7186 3.38917 8.58334 5.5244 8.58334 8.15834V10.6943C8.58334 10.9244 8.39679 11.111 8.16667 11.111C7.93655 11.111 7.75 10.9244 7.75 10.6943V8.15846C7.75 5.06428 10.2583 2.55584 13.3525 2.55584H14.7857L13.2745 1.04464C13.1118 0.88192 13.1118 0.618101 13.2745 0.455382Z" fill="#3B3B3B"/>
</svg>
