<svg width="18" height="16" viewBox="0 0 18 16" fill="none" xmlns="http://www.w3.org/2000/svg">
<path d="M5.15675 0.920032C4.96333 0.722952 4.64676 0.719992 4.44968 0.91342L0.649677 4.64301C0.544556 4.74618 0.494664 4.88439 0.500344 5.02081C0.495524 5.15048 0.541298 5.27972 0.632648 5.37866L4.36221 9.41807C4.54954 9.62095 4.86587 9.63357 5.06876 9.44624C5.27164 9.25892 5.28385 8.94215 5.09653 8.73926L2.14219 5.53948H12.0561C14.4713 5.53948 16.5 7.64121 16.5 10.2703C16.5 12.8995 14.4713 15.0012 12.0561 15.0012L1.00001 15.0012C0.723868 15.0012 0.50001 15.225 0.500009 15.5012C0.500009 15.7773 0.723866 16.0012 1.00001 16.0012L12.0561 16.0012C15.0756 16.0012 17.5 13.3982 17.5 10.2703C17.5 7.14248 15.0756 4.53948 12.0561 4.53948H2.18279L5.15014 1.62711C5.34722 1.43368 5.35018 1.11711 5.15675 0.920032Z" fill="#3B3B3B"/>
</svg>
